<svg width="25" height="25" viewBox="0 0 68 68" fill="none" xmlns="http://www.w3.org/2000/svg">
<path d="M33.9998 34C29.4165 34 25.4929 32.368 22.229 29.1042C18.9651 25.8403 17.3332 21.9167 17.3332 17.3333C17.3332 12.75 18.9651 8.82638 22.229 5.56249C25.4929 2.2986 29.4165 0.666656 33.9998 0.666656C38.5832 0.666656 42.5068 2.2986 45.7707 5.56249C49.0346 8.82638 50.6665 12.75 50.6665 17.3333C50.6665 21.9167 49.0346 25.8403 45.7707 29.1042C42.5068 32.368 38.5832 34 33.9998 34ZM0.666504 67.3333V55.6667C0.666504 53.3055 1.27414 51.1354 2.48942 49.1562C3.7047 47.1771 5.31928 45.6667 7.33317 44.625C11.6387 42.4722 16.0137 40.8576 20.4582 39.7812C24.9026 38.7048 29.4165 38.1667 33.9998 38.1667C38.5832 38.1667 43.0971 38.7048 47.5415 39.7812C51.9859 40.8576 56.3609 42.4722 60.6665 44.625C62.6804 45.6667 64.295 47.1771 65.5103 49.1562C66.7255 51.1354 67.3332 53.3055 67.3332 55.6667V67.3333H0.666504ZM8.99984 59H58.9998V55.6667C58.9998 54.9028 58.8089 54.2083 58.4269 53.5833C58.045 52.9583 57.5415 52.4722 56.9165 52.125C53.1665 50.25 49.3818 48.8437 45.5623 47.9062C41.7429 46.9687 37.8887 46.5 33.9998 46.5C30.1109 46.5 26.2568 46.9687 22.4373 47.9062C18.6179 48.8437 14.8332 50.25 11.0832 52.125C10.4582 52.4722 9.9547 52.9583 9.57275 53.5833C9.19081 54.2083 8.99984 54.9028 8.99984 55.6667V59ZM33.9998 25.6667C36.2915 25.6667 38.2533 24.8507 39.8853 23.2187C41.5172 21.5868 42.3332 19.625 42.3332 17.3333C42.3332 15.0417 41.5172 13.0799 39.8853 11.4479C38.2533 9.81596 36.2915 8.99999 33.9998 8.99999C31.7082 8.99999 29.7464 9.81596 28.1144 11.4479C26.4825 13.0799 25.6665 15.0417 25.6665 17.3333C25.6665 19.625 26.4825 21.5868 28.1144 23.2187C29.7464 24.8507 31.7082 25.6667 33.9998 25.6667Z" fill="#E1E1E1"/>
</svg>
