<?xml version="1.0" encoding="iso-8859-1"?>
<!-- Uploaded to: SVG Repo, www.svgrepo.com, Generator: SVG Repo Mixer Tools -->
<svg fill="#fff" height="25" width="25" version="1.1" id="Layer_1" xmlns="http://www.w3.org/2000/svg" xmlns:xlink="http://www.w3.org/1999/xlink" 
	 viewBox="0 0 328 328" xml:space="preserve">
<g id="XMLID_526_">
	<path id="XMLID_527_" d="M223,116.75c-34.488,0-65.145,16.716-84.298,42.47c-7.762-1.628-15.694-2.47-23.702-2.47
		c-63.411,0-115,51.589-115,115c0,8.284,6.716,15,15,15h125.596c19.246,24.348,49.031,40,82.404,40c57.897,0,105-47.103,105-105
		S280.897,116.75,223,116.75z M31.325,256.75c7.106-39.739,41.923-70,83.675-70c2.966,0,5.914,0.165,8.841,0.467
		c-3.779,10.82-5.841,22.44-5.841,34.533c0,12.268,2.122,24.047,6.006,35H31.325z M223,296.75c-41.355,0-75-33.645-75-75
		s33.645-75,75-75s75,33.645,75,75S264.355,296.75,223,296.75z"/>
	<path id="XMLID_533_" d="M115,126.75c34.601,0,62.75-28.149,62.75-62.749C177.75,29.4,149.601,1.25,115,1.25
		c-34.601,0-62.751,28.15-62.751,62.751C52.249,98.601,80.399,126.75,115,126.75z M115,31.25c18.059,0,32.75,14.692,32.75,32.751
		c0,18.058-14.691,32.749-32.75,32.749c-18.059,0-32.751-14.691-32.751-32.749C82.249,45.942,96.941,31.25,115,31.25z"/>
	<path id="XMLID_536_" d="M253,206.75h-15v-15c0-8.284-6.716-15-15-15s-15,6.716-15,15v15h-15c-8.284,0-15,6.716-15,15
		s6.716,15,15,15h15v15c0,8.284,6.716,15,15,15s15-6.716,15-15v-15h15c8.284,0,15-6.716,15-15S261.284,206.75,253,206.75z"/>
</g>
</svg>