<svg width="30" height="30" viewBox="0 0 51 63" fill="none" xmlns="http://www.w3.org/2000/svg">
<path d="M0.5 53.375L0.5 47.125H6.75L6.75 25.25C6.75 20.9271 8.05208 17.0859 10.6562 13.7266C13.2604 10.3672 16.6458 8.16667 20.8125 7.125V4.9375C20.8125 3.63542 21.2682 2.52865 22.1797 1.61719C23.0911 0.705729 24.1979 0.25 25.5 0.25C26.8021 0.25 27.9089 0.705729 28.8203 1.61719C29.7318 2.52865 30.1875 3.63542 30.1875 4.9375V7.125C34.3542 8.16667 37.7396 10.3672 40.3438 13.7266C42.9479 17.0859 44.25 20.9271 44.25 25.25L44.25 47.125H50.5V53.375L0.5 53.375ZM25.5 62.75C23.7812 62.75 22.3099 62.138 21.0859 60.9141C19.862 59.6901 19.25 58.2188 19.25 56.5H31.75C31.75 58.2188 31.138 59.6901 29.9141 60.9141C28.6901 62.138 27.2187 62.75 25.5 62.75ZM13 47.125H38L38 25.25C38 21.8125 36.776 18.8698 34.3281 16.4219C31.8802 13.974 28.9375 12.75 25.5 12.75C22.0625 12.75 19.1198 13.974 16.6719 16.4219C14.224 18.8698 13 21.8125 13 25.25L13 47.125Z" fill="#E1E1E1"/>
</svg>
